# xmcd
#
# Track frame offsets: 
#        150
#        18375
#        30578
#        48202
#        65403
#        76448
#        101988
#        114878
#        126459
#        134962
#        150107
#        158670
#        172874
#        185712
#
# Disc length: 2668 seconds
#
# Revision: 1
# Processed by: cddbd v1.5.2PL0 Copyright (c) Steve Scherf et al.
# Submitted via: ExactAudioCopy v1.3
#
DISCID=b30a6a0e
DTITLE=Stare Dobre Malzenstwo - Dolina w Dlugich Cieniach
DYEAR=1900
DGENRE=Other
TTITLE0=Dolina w dlugich cieniach
TTITLE1=Tango triste
TTITLE2=Zobaczysz
TTITLE3=Ratuj, sloneczko
TTITLE4=Jesien
TTITLE5=Czas plynie i zabija rany
TTITLE6=Biala lokomotywa
TTITLE7=Idz dalej
TTITLE8=Piosenka nad piosenkami
TTITLE9=Tak
TTITLE10=Piosenka dla zapowietrzonego
TTITLE11=Za dala dal
TTITLE12=Dookola mgla
TTITLE13=Nie rozdziobia nas kruki
EXTD=
EXTT0=
EXTT1=
EXTT2=
EXTT3=
EXTT4=
EXTT5=
EXTT6=
EXTT7=
EXTT8=
EXTT9=
EXTT10=
EXTT11=
EXTT12=
EXTT13=
PLAYORDER=
